HIERARCHY
ROOT Hips
{
	OFFSET 0.000000 0.000000 0.000000
	CHANNELS 6 Xposition Yposition Zposition Zrotation Yrotation Xrotation 
	JOINT LowerBack
	{
		OFFSET 0.000000 0.000000 0.000000
		CHANNELS 3 Zrotation Yrotation Xrotation
		JOINT Spine
		{
			OFFSET 0.028270 2.035590 -0.193380
			CHANNELS 3 Zrotation Yrotation Xrotation
			JOINT Spine1
			{
				OFFSET 0.056720 2.048850 -0.042750
				CHANNELS 3 Zrotation Yrotation Xrotation
				JOINT Neck
				{
					OFFSET 0.000000 0.000000 0.000000
					CHANNELS 3 Zrotation Yrotation Xrotation
					JOINT Neck1
					{
						OFFSET -0.054170 1.746240 0.172020
						CHANNELS 3 Zrotation Yrotation Xrotation
						JOINT Head
						{
							OFFSET 0.104070 1.761360 -0.123970
							CHANNELS 3 Zrotation Yrotation Xrotation
							End Site
							{
								OFFSET 0.000000 0.000000 0.000000
							}
						}
					}
				}
				JOINT LeftShoulder
				{
					OFFSET 0.000000 0.000000 0.000000
					CHANNELS 3 Zrotation Yrotation Xrotation
					JOINT LeftArm
					{
						OFFSET 3.362410 1.200890 -0.311210
						CHANNELS 3 Zrotation Yrotation Xrotation
						JOINT LeftForeArm
						{
							OFFSET 4.983000 -0.000000 -0.000000
							CHANNELS 3 Zrotation Yrotation Xrotation
							JOINT LeftHand
							{
								OFFSET 3.483560 -0.000000 -0.000000
								CHANNELS 3 Zrotation Yrotation Xrotation
								JOINT LeftFingerBase
								{
									OFFSET 0.000000 0.000000 0.000000
									CHANNELS 3 Zrotation Yrotation Xrotation
									JOINT LeftHandIndex1
									{
										OFFSET 0.715260 -0.000000 -0.000000
										CHANNELS 3 Zrotation Yrotation Xrotation
										End Site
										{
											OFFSET 0.000000 0.000000 0.000000
										}
									}
								}
								JOINT LThumb
								{
									OFFSET 0.000000 0.000000 0.000000
									CHANNELS 3 Zrotation Yrotation Xrotation
									End Site
									{
										OFFSET 0.000000 0.000000 0.000000
									}
								}
							}
						}
					}
				}
				JOINT RightShoulder
				{
					OFFSET 0.000000 0.000000 0.000000
					CHANNELS 3 Zrotation Yrotation Xrotation
					JOINT RightArm
					{
						OFFSET -3.136600 1.374050 -0.404650
						CHANNELS 3 Zrotation Yrotation Xrotation
						JOINT RightForeArm
						{
							OFFSET -5.241900 -0.000000 -0.000000
							CHANNELS 3 Zrotation Yrotation Xrotation
							JOINT RightHand
							{
								OFFSET -3.444170 -0.000000 -0.000000
								CHANNELS 3 Zrotation Yrotation Xrotation
								JOINT RightFingerBase
								{
									OFFSET 0.000000 0.000000 0.000000
									CHANNELS 3 Zrotation Yrotation Xrotation
									JOINT RightHandIndex1
									{
										OFFSET -0.622530 -0.000000 -0.000000
										CHANNELS 3 Zrotation Yrotation Xrotation
										End Site
										{
											OFFSET 0.000000 0.000000 0.000000
										}
									}
								}
								JOINT RThumb
								{
									OFFSET 0.000000 0.000000 0.000000
									CHANNELS 3 Zrotation Yrotation Xrotation
									End Site
									{
										OFFSET 0.000000 0.000000 0.000000
									}
								}
							}
						}
					}
				}
			}
		}
	}
}
}
MOTION
Frames: 15
Frame Time: 0.008333
3.697447 16.255718 -3.277471 -163.138393 70.373096 -160.631647 4.754346 -1.874501 -0.529211 0.324787 -2.217869 -2.405532 -5.669664 -2.213884 3.035256 10.275524 -16.069647 -11.763886 -1.991447 -0.096082 -1.098468 0.000000 0.000000 0.000000 1.930172 20.402653 0.753982 -74.162365 4.071865 -3.381179 -2.702397 -35.111533 -0.009205 10.475225 -0.432077 -0.045568 -0.166740 0.066559 -0.000000 0.000000 0.000000 0.000000 0.000000 0.000000 0.000000 12.402301 -12.442307 0.504888 70.451436 -4.665808 -20.175264 3.740464 19.477239 0.003742 -4.597121 3.537597 -0.150010 0.157005 -0.086516 -0.000000 0.000000 0.000000 0.000000 0.000000 0.000000 0.000000 
3.915763 16.327580 -3.377777 -163.264700 69.580369 -160.789493 5.194579 -2.158949 -0.749180 0.415439 -2.543424 -2.438531 -5.724486 -2.532182 3.026583 10.444604 -16.578846 -11.777616 -2.056064 -0.101759 -1.095302 0.000000 0.000000 0.000000 2.512734 19.851768 0.618516 -72.684109 4.362634 -2.296211 -2.571586 -38.754749 -0.010080 10.411936 -0.863111 -0.086434 -0.173190 0.080754 -0.000000 0.000000 0.000000 0.000000 0.000000 0.000000 0.000000 13.002644 -13.132877 0.509004 70.994937 -5.722441 -20.163323 3.827713 18.954424 0.003714 -3.978099 3.033619 -0.111735 0.154108 -0.077483 -0.000000 0.000000 0.000000 0.000000 0.000000 0.000000 0.000000 
4.136563 16.404742 -3.478941 -163.367642 68.730527 -160.938449 5.627885 -2.459556 -0.992990 0.509358 -2.886041 -2.473715 -5.775063 -2.866894 3.028200 10.631955 -17.142164 -11.804372 -2.115719 -0.106938 -1.095121 0.000000 0.000000 0.000000 3.102752 19.345377 0.485053 -71.114731 4.676899 -1.317064 -2.425786 -42.287732 -0.011248 10.395040 -1.270328 -0.125301 -0.179038 0.096369 -0.000000 0.000000 0.000000 0.000000 0.000000 0.000000 0.000000 13.618345 -13.876352 0.498505 71.459319 -6.829706 -19.859612 3.908089 18.700792 0.003742 -3.350073 2.602706 -0.081155 0.151020 -0.068610 -0.000000 0.000000 0.000000 0.000000 0.000000 0.000000 0.000000 
4.359691 16.486528 -3.580450 -163.473656 67.827681 -161.097501 6.039609 -2.774930 -1.265085 0.604262 -3.243564 -2.511970 -5.820194 -3.216118 3.041801 10.833194 -17.754430 -11.841598 -2.170121 -0.111634 -1.097238 0.000000 0.000000 0.000000 3.690748 18.887378 0.353499 -69.471558 4.994105 -0.479338 -2.268649 -45.675082 -0.012902 10.463012 -1.620402 -0.160273 -0.184409 0.113119 -0.000000 0.000000 0.000000 0.000000 0.000000 0.000000 0.000000 14.242454 -14.669718 0.471977 71.855330 -7.963104 -19.335130 3.980292 18.657392 0.003885 -2.741162 2.286837 -0.058767 0.147823 -0.060217 -0.000000 0.000000 0.000000 0.000000 0.000000 0.000000 0.000000 
4.584988 16.572233 -3.681957 -163.600156 66.880999 -161.278076 6.417528 -3.101741 -1.568457 0.698089 -3.611942 -2.553992 -5.858778 -3.576068 3.068574 11.042814 -18.406834 -11.886194 -2.218969 -0.115863 -1.100883 0.000000 0.000000 0.000000 4.266857 18.484915 0.223671 -67.774098 5.292751 0.201424 -2.105092 -48.885578 -0.015211 10.637949 -1.885627 -0.189655 -0.189500 0.130607 0.000000 0.000000 0.000000 0.000000 0.000000 0.000000 0.000000 14.866355 -15.504649 0.428820 72.196378 -9.102607 -18.679086 4.043050 18.764468 0.004173 -2.175075 2.108024 -0.043275 0.144609 -0.052587 -0.000000 0.000000 0.000000 0.000000 0.000000 0.000000 0.000000 
4.812261 16.661224 -3.783247 -163.754753 65.904598 -161.483674 6.753121 -3.435064 -1.903517 0.789297 -3.985596 -2.600418 -5.889466 -3.941463 3.107783 11.253401 -19.090807 -11.934130 -2.261766 -0.119632 -1.105063 0.000000 0.000000 0.000000 4.818676 18.136001 0.095202 -66.041930 5.565046 0.715777 -1.940131 -51.903531 -0.018290 10.923401 -2.048357 -0.212348 -0.194468 0.148371 -0.000000 0.000000 0.000000 0.000000 0.000000 0.000000 0.000000 15.477555 -16.371924 0.370577 72.496125 -10.230531 -17.973580 4.095748 18.960570 0.004611 -1.673479 2.068767 -0.033078 0.141512 -0.045916 -0.000000 0.000000 0.000000 0.000000 0.000000 0.000000 0.000000 
5.041323 16.752733 -3.884243 -163.938266 64.916561 -161.713326 7.040602 -3.768406 -2.267901 0.876530 -4.357399 -2.651263 -5.911011 -4.305460 3.158652 11.457214 -19.794277 -11.981645 -2.297868 -0.122919 -1.108958 0.000000 0.000000 0.000000 5.338014 17.843338 -0.031883 -64.297813 5.798416 1.070091 -1.779165 -54.710878 -0.022154 11.308165 -2.107302 -0.227454 -0.199415 0.165997 0.000000 0.000000 0.000000 0.000000 0.000000 0.000000 0.000000 16.062033 -17.257285 0.299568 72.772843 -11.336099 -17.301330 4.138678 19.194640 0.005176 -1.247260 2.152561 -0.026077 0.138644 -0.040304 -0.000000 0.000000 0.000000 0.000000 0.000000 0.000000 0.000000 
5.271853 16.845826 -3.984877 -164.150740 63.938500 -161.967973 7.274988 -4.094422 -2.655377 0.958178 -4.719227 -2.705726 -5.922310 -4.660194 3.219898 11.646402 -20.501220 -12.024811 -2.326716 -0.125693 -1.111771 0.000000 0.000000 0.000000 5.821797 17.610943 -0.157085 -62.567286 5.977370 1.281043 -1.627150 -57.289891 -0.026740 11.769235 -2.076859 -0.235375 -0.204357 0.183189 0.000000 0.000000 0.000000 0.000000 0.000000 0.000000 0.000000 16.605234 -18.141629 0.218980 73.048449 -12.416644 -16.742615 4.173150 19.427854 0.005818 -0.894346 2.326105 -0.020773 0.136080 -0.035746 -0.000000 0.000000 0.000000 0.000000 0.000000 0.000000 0.000000 
5.503485 16.939454 -4.085084 -164.390896 62.991998 -162.249642 7.452645 -4.405765 -3.056191 1.032528 -5.062854 -2.762471 -5.922492 -4.997685 3.288940 11.813658 -21.196551 -12.059871 -2.347695 -0.127909 -1.112769 0.000000 0.000000 0.000000 6.269178 17.435887 -0.279704 -60.875718 6.096575 1.366032 -1.487524 -59.633282 -0.031893 12.275521 -1.981712 -0.236909 -0.209189 0.199762 0.000000 0.000000 0.000000 0.000000 0.000000 0.000000 0.000000 17.092583 -19.006746 0.133394 73.345463 -13.472126 -16.354666 4.201097 19.631500 0.006476 -0.605489 2.547794 -0.016166 0.133863 -0.032146 -0.000000 0.000000 0.000000 0.000000 0.000000 0.000000 0.000000 
5.735753 17.032439 -4.184771 -164.654181 62.098135 -162.559708 7.573348 -4.695574 -3.456848 1.098363 -5.380579 -2.819436 -5.910553 -5.310459 3.362780 11.952773 -21.870950 -12.084255 -2.359715 -0.129457 -1.111536 0.000000 0.000000 0.000000 6.679857 17.309940 -0.399196 -59.247037 6.157762 1.341464 -1.362036 -61.743340 -0.037396 12.790829 -1.852218 -0.233858 -0.213711 0.215663 -0.000000 0.000000 0.000000 0.000000 0.000000 0.000000 0.000000 17.509806 -19.841198 0.048285 73.681283 -14.498174 -16.153609 4.224501 19.782503 0.007080 -0.371651 2.775717 -0.011862 0.132030 -0.029312 -0.000000 0.000000 0.000000 0.000000 0.000000 0.000000 0.000000 
5.967995 17.123446 -4.283896 -164.941203 61.274928 -162.909034 7.634066 -4.958571 -3.838752 1.153220 -5.665919 -2.873264 -5.887205 -5.592153 3.438346 12.060042 -22.503787 -12.095269 -2.363227 -0.130348 -1.107640 0.000000 0.000000 0.000000 7.061220 17.233605 -0.513892 -57.705967 6.152137 1.230866 -1.251541 -63.615051 -0.043005 13.281747 -1.722905 -0.229419 -0.217730 0.230976 -0.000000 0.000000 0.000000 0.000000 0.000000 0.000000 0.000000 17.850393 -20.621854 -0.032213 74.077715 -15.503288 -16.181052 4.245559 19.880152 0.007549 -0.165425 2.962757 -0.007258 0.130481 -0.027061 -0.000000 0.000000 0.000000 0.000000 0.000000 0.000000 0.000000 
6.199565 17.211205 -4.382226 -165.248190 60.537944 -163.304304 7.638026 -5.190518 -4.182314 1.196135 -5.913841 -2.920405 -5.852502 -5.837842 3.512848 12.133536 -23.089888 -12.093134 -2.357559 -0.130466 -1.101353 0.000000 0.000000 0.000000 7.414300 17.199109 -0.622906 -56.270846 6.084862 1.047266 -1.155138 -65.259379 -0.048474 13.717592 -1.622164 -0.226493 -0.221027 0.245819 -0.000000 0.000000 0.000000 0.000000 0.000000 0.000000 0.000000 18.108210 -21.343133 -0.103361 74.542852 -16.478173 -16.410122 4.265682 19.916863 0.007830 0.025356 3.076946 -0.002357 0.129176 -0.025161 -0.000000 0.000000 0.000000 0.000000 0.000000 0.000000 0.000000 
6.429671 17.294452 -4.479762 -165.568433 59.898637 -163.751307 7.588836 -5.388691 -4.467168 1.225891 -6.120959 -2.956966 -5.808269 -6.044103 3.583689 12.173918 -23.618452 -12.078545 -2.343449 -0.129819 -1.093022 0.000000 0.000000 0.000000 7.741380 17.204308 -0.724782 -54.957249 5.957305 0.803055 -1.071473 -66.685580 -0.053589 14.075516 -1.571887 -0.227878 -0.223435 0.260311 -0.000000 0.000000 0.000000 0.000000 0.000000 0.000000 0.000000 18.284928 -21.993445 -0.162116 75.083162 -17.418030 -16.826524 4.285989 19.897941 0.007871 0.219283 3.091969 0.002940 0.128005 -0.023426 -0.000000 0.000000 0.000000 0.000000 0.000000 0.000000 0.000000 
6.657635 17.372010 -4.576326 -165.897132 59.364971 -164.254091 7.492073 -5.551906 -4.675993 1.241972 -6.285838 -2.979479 -5.756635 -6.209389 3.649177 12.184225 -24.084088 -12.054005 -2.321725 -0.128412 -1.083388 0.000000 0.000000 0.000000 8.042204 17.247064 -0.818168 -53.774608 5.775159 0.504549 -0.998793 -67.908422 -0.058184 14.341019 -1.583412 -0.235573 -0.224842 0.274522 0.000000 0.000000 0.000000 0.000000 0.000000 0.000000 0.000000 18.386399 -22.567390 -0.206414 75.696193 -18.311198 -17.394492 4.307048 19.827724 0.007654 0.428263 2.995289 0.008332 0.126872 -0.021695 -0.000000 0.000000 0.000000 0.000000 0.000000 0.000000 0.000000 
6.882889 17.442848 -4.671763 -166.231620 58.939605 -164.814728 7.352680 -5.680625 -4.797070 1.244128 -6.409022 -2.985432 -5.700153 -6.334058 3.708421 12.169358 -24.484812 -12.022898 -2.293449 -0.126282 -1.073346 0.000000 0.000000 0.000000 8.315073 17.325594 -0.901854 -52.726624 5.547166 0.154495 -0.935350 -68.944914 -0.062154 14.509035 -1.657060 -0.249578 -0.225213 0.288431 0.000000 0.000000 0.000000 0.000000 0.000000 0.000000 0.000000 18.422088 -23.063293 -0.235428 76.374120 -19.143048 -18.071852 4.329001 19.710797 0.007179 0.659910 2.787415 0.013519 0.125692 -0.019858 -0.000000 0.000000 0.000000 0.000000 0.000000 0.000000 0.000000 
